<svg width="38" height="38" viewBox="0 0 38 38" fill="none" xmlns="http://www.w3.org/2000/svg">
<path fill-rule="evenodd" clip-rule="evenodd" d="M19 37C28.9411 37 37 28.9411 37 19C37 9.05888 28.9411 1 19 1C9.05888 1 1 9.05888 1 19C1 28.9411 9.05888 37 19 37ZM19 38C29.4934 38 38 29.4934 38 19C38 8.50659 29.4934 0 19 0C8.50659 0 0 8.50659 0 19C0 29.4934 8.50659 38 19 38Z" fill="white"/>
<path d="M15.6129 15.6471C15.6129 18.7658 13.0133 21.2941 9.80645 21.2941C6.59964 21.2941 4 18.7658 4 15.6471C4 12.5283 6.59964 10 9.80645 10C13.0133 10 15.6129 12.5283 15.6129 15.6471Z" fill="white"/>
<path d="M34 15.6471C34 18.246 31.8336 20.3529 29.1613 20.3529C26.4889 20.3529 24.3226 18.246 24.3226 15.6471C24.3226 13.0481 26.4889 10.9412 29.1613 10.9412C31.8336 10.9412 34 13.0481 34 15.6471Z" fill="white"/>
<path d="M25.9852 20.3752C24.4012 19.3667 23.3548 17.6257 23.3548 15.6471C23.3548 14.8015 23.5459 13.9994 23.8884 13.2793C22.3192 11.8389 20.104 10.9412 17.6488 10.9412C16 10.9412 15.8573 11.25 15 11.5C16.034 12.6567 16.5806 13.9941 16.5806 15.6471C16.5806 19.1636 14 21.5 11 22C12.4878 24.256 14.4557 26 17.6488 26C21.6536 26 25.0201 23.6114 25.9852 20.3752Z" fill="white"/>
<path d="M16 32C16.0769 34.0675 15.5 37 15 37C13 36.5 11.5 35.3679 8.5 34C8.5 34 5.5 31.5 3.99999 29.5C3.5 29.5 4.99999 26 9.99999 26C12.7948 26 15.8908 29.066 16 32Z" fill="white"/>
<path d="M33 24C34 24.5 35 25.5 35.5 27L34.5 28.4652L31.5 32.5L28.9491 34.4983L27.8931 34.9325C27.2143 35.136 26.5321 35.4874 25.7942 35.8675C24.4739 36.5476 22.9754 37.3195 21 37.5C18.9474 37.6875 17.6202 37.8806 16 37.5C16.5 37.5 17.4393 33.8345 17 31.5C16.7525 30.1848 16.43 29.2294 15.7256 28.3189C16.8505 28.0736 17.5107 27.9572 18.676 28.0175C20.5 28.0175 22 28.5 22 28.5C22 28.5 22 31.5 22.5 33C22.7268 34.2273 23.1524 35.2834 23.5 36.5C23.5428 36.6693 23.5 36.5 23.6414 36.8716C23.6414 36.8716 24.1068 36.6798 24.5 36.5089C22.5 30.5 23.0477 28.3412 23.5 27C23.8373 26 25.1506 24.2397 27 23.5C29.2535 22.5986 31 23 33 24Z" fill="white"/>
</svg>
