<svg width="281" height="311" viewBox="0 0 281 311" fill="none" xmlns="http://www.w3.org/2000/svg">
<path d="M141.34 140.317L280.609 70.1584L141.34 0L1.02357 70.1584L141.34 140.317Z" fill="#C47C4E"/>
<path d="M1.02357 242.157L0.5 69.9024L140.816 140.061L141.34 310.744L1.02357 242.157Z" fill="#A36741"/>
<path d="M140.816 140.317L280.609 70.1584V241.365L140.816 311V140.317Z" fill="#7A4D31"/>
<path d="M92.6481 86.7598C92.6481 89.4679 94.8041 91.6838 97.5112 91.7579L167.815 93.6841C168.651 93.707 169.479 93.5198 170.224 93.1397L211.669 71.9943C215.306 70.1388 215.306 64.9422 211.669 63.0867L145.649 29.4029C144.254 28.6911 142.606 28.6742 141.197 29.3571L95.4679 51.5143C93.7434 52.3499 92.6481 54.0976 92.6481 56.0139V86.7598Z" fill="#C9C5D2"/>
<path d="M169.696 209.869C168.449 212.041 169 214.799 170.986 216.324L200.493 238.985C201.977 240.125 203.975 240.341 205.668 239.543L252.571 217.457C254.342 216.623 255.463 214.832 255.44 212.875L254.529 135.53C254.486 131.89 250.692 129.515 247.399 131.066L204.333 151.349C203.407 151.785 202.637 152.495 202.127 153.383L169.696 209.869Z" fill="#8C8C8C"/>
<path d="M169.696 209.869C168.449 212.041 169 214.799 170.986 216.324L200.493 238.985C201.977 240.125 203.975 240.341 205.668 239.543L252.571 217.457C254.342 216.623 255.463 214.832 255.44 212.875L254.529 135.53C254.486 131.89 250.692 129.515 247.399 131.066L204.333 151.349C203.407 151.785 202.637 152.495 202.127 153.383L169.696 209.869Z" fill="#8C8C8C"/>
<path d="M26.1549 183.965C26.1549 185.897 26.6638 187.795 27.6304 189.468L51.678 231.089C52.7871 233.008 54.4501 234.548 56.4492 235.506L72.6643 243.276C76.2725 245.004 80.5349 244.638 83.7949 242.318L101.115 229.995C104.015 227.931 105.737 224.591 105.737 221.032V199.288C105.737 197.356 105.228 195.458 104.262 193.785L80.112 151.987C79.0668 150.178 77.5281 148.704 75.6757 147.738L60.3673 139.751C56.7192 137.847 52.3138 138.139 48.9487 140.507L30.8244 153.261C27.8968 155.321 26.1549 158.677 26.1549 162.257V183.965Z" fill="#929294"/>
<path d="M26.1549 183.965C26.1549 185.897 26.6638 187.795 27.6304 189.468L51.678 231.089C52.7871 233.008 54.4501 234.548 56.4492 235.506L72.6643 243.276C76.2725 245.004 80.5349 244.638 83.7949 242.318L101.115 229.995C104.015 227.931 105.737 224.591 105.737 221.032V199.288C105.737 197.356 105.228 195.458 104.262 193.785L80.112 151.987C79.0668 150.178 77.5281 148.704 75.6757 147.738L60.3673 139.751C56.7192 137.847 52.3138 138.139 48.9487 140.507L30.8244 153.261C27.8968 155.321 26.1549 158.677 26.1549 162.257V183.965Z" fill="#929294"/>
</svg>
